<svg width="614" height="43" viewBox="0 0 614 43" fill="none" xmlns="http://www.w3.org/2000/svg">
<path fill-rule="evenodd" clip-rule="evenodd" d="M0.271973 43.0005H36.895L39.545 34.2555H13.257L39.545 10.6175V1.8725H3.45197L0.801973 10.6175H26.56L0.271973 34.2555V43.0005ZM44.847 43.0005H54.652V1.8725H44.847V43.0005ZM62.6 43.0005H98.693L101.343 34.2555H72.405V1.8725H62.6V43.0005ZM119.922 43.0005H143.666L146.316 34.2555H121.088C115.523 34.2555 112.873 28.5315 112.873 22.7015C112.873 16.7125 115.682 10.6175 121.088 10.6175H143.666L146.316 1.8725H119.922C108.209 1.8725 102.538 11.8895 102.538 22.0655C102.538 32.4535 108.474 43.0005 119.922 43.0005ZM150.588 43.0005H160.393V27.3125L177.141 43.0005H190.843H191.716H201.178L215.488 12.0485L223.544 29.1145H212.043L208.439 37.4885H227.519L230.116 43.0005H240.451L220.205 0.8125L210.4 3.4625L191.112 42.4555L168.396 21.9595L190.656 1.8725H177.141L160.393 17.6135V0.8125L150.588 3.4625V43.0005ZM248.43 43.0005H258.235V10.6175H273.605L276.255 1.8725H233.272V10.6175H248.43V43.0005ZM280.759 43.0005H290.564V27.8955H312.082V43.0005H321.887V1.8725H312.082V19.1505H290.564V0.8125L280.759 3.4625V43.0005ZM359.083 43.0005H343.056C333.665 40.6968 326.805 33.9477 326.805 22.4365C326.805 7.9145 337.723 0.971501 350.867 0.971501C364.435 0.971501 375.618 7.4905 375.618 22.4365C375.618 34.1753 368.67 40.7444 359.083 43.0005ZM380.548 43.0005H390.353V15.8645L411.871 43.0005H421.676V1.8725H411.871V27.9485L390.353 0.8125L380.548 3.4625V43.0005ZM523.013 43.0005C524.25 43.0005 525.292 42.5765 526.14 41.7285C526.988 40.8805 527.412 39.8382 527.412 38.6015V10.3525C527.412 9.11583 526.988 8.0735 526.14 7.2255C525.292 6.3775 524.25 5.9535 523.013 5.9535C521.776 5.9535 520.734 6.3775 519.886 7.2255C519.038 8.0735 518.614 9.11583 518.614 10.3525V38.6015C518.614 39.8382 519.038 40.8805 519.886 41.7285C520.734 42.5765 521.776 43.0005 523.013 43.0005ZM494.34 43.0005C495.577 43.0005 496.601 42.5765 497.414 41.7285C498.262 40.8805 498.686 39.8382 498.686 38.6015V10.3525C498.686 9.11583 498.262 8.0735 497.414 7.2255C496.601 6.3775 495.577 5.9535 494.34 5.9535C493.103 5.9535 492.061 6.3775 491.213 7.2255C490.365 8.0735 489.941 9.11583 489.941 10.3525V38.6015C489.941 39.8382 490.365 40.8805 491.213 41.7285C492.061 42.5765 493.103 43.0005 494.34 43.0005ZM351.344 34.9975C341.857 34.9975 337.14 31.5525 337.14 22.4365C337.14 13.3205 341.857 9.8755 351.344 9.8755C360.513 9.8755 365.283 13.5855 365.283 22.4365C365.283 31.2875 360.513 34.9975 351.344 34.9975ZM448.773 26.7295V30.8635H461.599V26.7295H448.773ZM504.569 27.6305C505.417 28.4785 506.442 28.9025 507.643 28.9025H509.657C510.894 28.9025 511.936 28.4785 512.784 27.6305C513.632 26.7825 514.056 25.7402 514.056 24.5035C514.056 23.2668 513.632 22.2245 512.784 21.3765C511.936 20.5285 510.894 20.1045 509.657 20.1045H507.643C506.442 20.1045 505.417 20.5285 504.569 21.3765C503.721 22.2245 503.297 23.2668 503.297 24.5035C503.297 25.7402 503.721 26.7825 504.569 27.6305ZM536.426 21.3235C535.578 22.1715 535.154 23.2138 535.154 24.4505H535.207V38.5485C535.207 39.7852 535.631 40.8275 536.479 41.6755C537.327 42.5235 538.351 42.9475 539.553 42.9475C540.789 42.9475 541.832 42.5235 542.68 41.6755C543.528 40.8275 543.952 39.7852 543.952 38.5485V28.8495H555.877C557.078 28.8495 558.103 28.4255 558.951 27.5775C559.799 26.7295 560.223 25.6872 560.223 24.4505C560.223 23.2138 559.799 22.1715 558.951 21.3235C558.103 20.4755 557.078 20.0515 555.877 20.0515H539.5C538.298 20.0515 537.274 20.4755 536.426 21.3235ZM536.479 13.4795C537.327 14.2922 538.351 14.6985 539.553 14.6985H568.279C569.515 14.6985 570.558 14.2922 571.406 13.4795C572.254 12.6315 572.678 11.5892 572.678 10.3525C572.678 9.11583 572.254 8.0735 571.406 7.2255C570.558 6.3775 569.515 5.9535 568.279 5.9535H539.553C538.351 5.9535 537.327 6.3775 536.479 7.2255C535.631 8.0735 535.207 9.11583 535.207 10.3525C535.207 11.5892 535.631 12.6315 536.479 13.4795ZM577.15 13.4795C577.998 14.2922 579.04 14.6985 580.277 14.6985H608.95C610.187 14.6985 611.229 14.2922 612.077 13.4795C612.925 12.6315 613.349 11.5892 613.349 10.3525C613.349 9.11583 612.925 8.0735 612.077 7.2255C611.229 6.3775 610.187 5.9535 608.95 5.9535H580.277C579.04 5.9535 577.998 6.3775 577.15 7.2255C576.302 8.0735 575.878 9.11583 575.878 10.3525C575.878 11.5892 576.302 12.6315 577.15 13.4795ZM591.46 21.3235C590.612 22.1715 590.188 23.2138 590.188 24.4505V38.5485C590.188 39.7852 590.612 40.8275 591.46 41.6755C592.308 42.5235 593.35 42.9475 594.587 42.9475C595.824 42.9475 596.866 42.5235 597.714 41.6755C598.562 40.8275 598.986 39.7852 598.986 38.5485V24.4505C598.986 23.2138 598.562 22.1715 597.714 21.3235C596.866 20.4755 595.824 20.0515 594.587 20.0515C593.35 20.0515 592.308 20.4755 591.46 21.3235Z" fill="#9AFF1D"/>
</svg>
